<mxfile host="Electron" agent="Mozilla/5.0 (X11; Linux x86_64) AppleWebKit/537.36 (KHTML, like Gecko) draw.io/24.7.5 Chrome/126.0.6478.183 Electron/31.3.0 Safari/537.36" version="24.7.5">
  <diagram name="第 1 页" id="huckOj3Etd9BhcJPRhfS">
    <mxGraphModel dx="1630" dy="543" grid="1" gridSize="10" guides="1" tooltips="1" connect="1" arrows="1" fold="1" page="0" pageScale="1" pageWidth="827" pageHeight="1169" math="0" shadow="0">
      <root>
        <mxCell id="0" />
        <mxCell id="1" parent="0" />
        <mxCell id="CldbZqe4EOuW3ksQhoC5-10" value="" style="endArrow=classic;html=1;rounded=0;entryX=0;entryY=0.5;entryDx=0;entryDy=0;startArrow=oval;startFill=1;startSize=2;strokeWidth=1;" parent="1" target="CldbZqe4EOuW3ksQhoC5-5" edge="1">
          <mxGeometry width="50" height="50" relative="1" as="geometry">
            <mxPoint x="520" y="330" as="sourcePoint" />
            <mxPoint x="500" y="220" as="targetPoint" />
            <Array as="points">
              <mxPoint x="520" y="170" />
              <mxPoint x="-410" y="170" />
              <mxPoint x="-410" y="415" />
            </Array>
          </mxGeometry>
        </mxCell>
        <mxCell id="kVvyRQ-RTrP0RDZJgKDB-4" value="" style="endArrow=classic;startArrow=oval;html=1;rounded=0;startSize=2;startFill=1;entryX=0;entryY=0.5;entryDx=0;entryDy=0;strokeWidth=1;" parent="1" target="kVvyRQ-RTrP0RDZJgKDB-1" edge="1">
          <mxGeometry width="50" height="50" relative="1" as="geometry">
            <mxPoint x="-140" y="180" as="sourcePoint" />
            <mxPoint x="600" y="180" as="targetPoint" />
            <Array as="points">
              <mxPoint x="640" y="180" />
              <mxPoint x="640" y="300" />
            </Array>
          </mxGeometry>
        </mxCell>
        <mxCell id="O1hQJYMaAqLJGhxnyRPd-26" value="" style="endArrow=classic;html=1;rounded=0;fontFamily=Ubuntu mono;entryX=0;entryY=0.5;entryDx=0;entryDy=0;strokeWidth=2;fillColor=#f5f5f5;strokeColor=#666666;exitX=0.75;exitY=1;exitDx=0;exitDy=0;" parent="1" source="O1hQJYMaAqLJGhxnyRPd-23" target="CldbZqe4EOuW3ksQhoC5-6" edge="1">
          <mxGeometry width="50" height="50" relative="1" as="geometry">
            <mxPoint x="-140" y="180" as="sourcePoint" />
            <mxPoint x="-140" y="260" as="targetPoint" />
            <Array as="points">
              <mxPoint x="-140" y="260" />
              <mxPoint x="-140" y="180" />
              <mxPoint x="-400" y="180" />
              <mxPoint x="-400" y="385" />
            </Array>
          </mxGeometry>
        </mxCell>
        <mxCell id="kVvyRQ-RTrP0RDZJgKDB-6" value="" style="endArrow=none;html=1;rounded=0;exitX=1;exitY=0.5;exitDx=0;exitDy=0;fillColor=#f8cecc;strokeColor=#b85450;strokeWidth=2;" parent="1" source="O1hQJYMaAqLJGhxnyRPd-35" edge="1">
          <mxGeometry width="50" height="50" relative="1" as="geometry">
            <mxPoint x="-160" y="420" as="sourcePoint" />
            <mxPoint x="-120" y="420" as="targetPoint" />
          </mxGeometry>
        </mxCell>
        <mxCell id="Fffr6t4dnOwJvNakXLKN-3" value="" style="endArrow=classic;html=1;rounded=0;exitX=1;exitY=0.5;exitDx=0;exitDy=0;strokeWidth=1;entryX=0;entryY=0.8;entryDx=0;entryDy=0;entryPerimeter=0;endFill=1;" parent="1" source="O1hQJYMaAqLJGhxnyRPd-20" target="CldbZqe4EOuW3ksQhoC5-1" edge="1">
          <mxGeometry width="50" height="50" relative="1" as="geometry">
            <mxPoint x="230" y="405" as="sourcePoint" />
            <mxPoint x="240" y="405" as="targetPoint" />
          </mxGeometry>
        </mxCell>
        <mxCell id="Fffr6t4dnOwJvNakXLKN-1" value="" style="endArrow=classic;html=1;rounded=0;entryX=0;entryY=0.5;entryDx=0;entryDy=0;startArrow=oval;startFill=1;startSize=2;strokeWidth=1;" parent="1" target="o48kV30xjnTPGN6VNpOy-21" edge="1">
          <mxGeometry width="50" height="50" relative="1" as="geometry">
            <mxPoint x="230" y="405" as="sourcePoint" />
            <mxPoint x="290" y="355" as="targetPoint" />
            <Array as="points">
              <mxPoint x="230" y="480" />
              <mxPoint x="520" y="480" />
              <mxPoint x="520" y="420" />
            </Array>
          </mxGeometry>
        </mxCell>
        <mxCell id="CldbZqe4EOuW3ksQhoC5-25" value="" style="endArrow=classic;html=1;rounded=0;strokeWidth=1;" parent="1" edge="1">
          <mxGeometry width="50" height="50" relative="1" as="geometry">
            <mxPoint x="330.15999999999997" y="425" as="sourcePoint" />
            <mxPoint x="330" y="560" as="targetPoint" />
          </mxGeometry>
        </mxCell>
        <mxCell id="CldbZqe4EOuW3ksQhoC5-24" value="" style="endArrow=classic;html=1;rounded=0;entryX=0.607;entryY=0;entryDx=0;entryDy=0;entryPerimeter=0;strokeWidth=1;" parent="1" edge="1">
          <mxGeometry width="50" height="50" relative="1" as="geometry">
            <mxPoint x="299.99" y="425" as="sourcePoint" />
            <mxPoint x="299.8299999999999" y="560" as="targetPoint" />
          </mxGeometry>
        </mxCell>
        <mxCell id="CldbZqe4EOuW3ksQhoC5-20" style="edgeStyle=orthogonalEdgeStyle;rounded=0;orthogonalLoop=1;jettySize=auto;html=1;entryX=0;entryY=0.5;entryDx=0;entryDy=0;strokeWidth=1;" parent="1" source="CldbZqe4EOuW3ksQhoC5-13" target="O1hQJYMaAqLJGhxnyRPd-43" edge="1">
          <mxGeometry relative="1" as="geometry">
            <mxPoint x="430" y="340" as="targetPoint" />
          </mxGeometry>
        </mxCell>
        <mxCell id="o48kV30xjnTPGN6VNpOy-16" style="edgeStyle=orthogonalEdgeStyle;rounded=0;orthogonalLoop=1;jettySize=auto;html=1;entryX=0;entryY=0.5;entryDx=0;entryDy=0;strokeWidth=2;exitX=0.5;exitY=0;exitDx=0;exitDy=0;fillColor=#fff2cc;strokeColor=#d6b656;" parent="1" source="o48kV30xjnTPGN6VNpOy-11" target="O1hQJYMaAqLJGhxnyRPd-14" edge="1">
          <mxGeometry relative="1" as="geometry">
            <mxPoint x="10" y="320" as="targetPoint" />
            <mxPoint x="740" y="360" as="sourcePoint" />
            <Array as="points">
              <mxPoint x="720" y="330" />
              <mxPoint x="720" y="240" />
              <mxPoint x="-40" y="240" />
              <mxPoint x="-40" y="320" />
            </Array>
          </mxGeometry>
        </mxCell>
        <mxCell id="CldbZqe4EOuW3ksQhoC5-16" value="" style="endArrow=classic;html=1;rounded=0;entryX=0;entryY=0.5;entryDx=0;entryDy=0;startArrow=oval;startFill=1;startSize=2;strokeWidth=1;" parent="1" target="CldbZqe4EOuW3ksQhoC5-14" edge="1">
          <mxGeometry width="50" height="50" relative="1" as="geometry">
            <mxPoint x="-260" y="340" as="sourcePoint" />
            <mxPoint x="-210" y="290" as="targetPoint" />
            <Array as="points">
              <mxPoint x="-80" y="340" />
              <mxPoint x="-80" y="260" />
              <mxPoint x="370" y="260" />
              <mxPoint x="370" y="325" />
            </Array>
          </mxGeometry>
        </mxCell>
        <mxCell id="CldbZqe4EOuW3ksQhoC5-11" style="edgeStyle=orthogonalEdgeStyle;rounded=0;orthogonalLoop=1;jettySize=auto;html=1;entryX=0;entryY=0.2;entryDx=0;entryDy=0;entryPerimeter=0;strokeWidth=1;" parent="1" source="O1hQJYMaAqLJGhxnyRPd-19" target="CldbZqe4EOuW3ksQhoC5-1" edge="1">
          <mxGeometry relative="1" as="geometry" />
        </mxCell>
        <mxCell id="O1hQJYMaAqLJGhxnyRPd-46" style="edgeStyle=orthogonalEdgeStyle;rounded=0;orthogonalLoop=1;jettySize=auto;html=1;entryX=0;entryY=0.5;entryDx=0;entryDy=0;fontFamily=Ubuntu mono;strokeWidth=1;startArrow=oval;startFill=1;endSize=6;startSize=2;" parent="1" target="CldbZqe4EOuW3ksQhoC5-15" edge="1">
          <mxGeometry relative="1" as="geometry">
            <mxPoint x="230" y="345" as="sourcePoint" />
            <Array as="points">
              <mxPoint x="230" y="280" />
              <mxPoint x="360" y="280" />
              <mxPoint x="360" y="355" />
            </Array>
          </mxGeometry>
        </mxCell>
        <mxCell id="CldbZqe4EOuW3ksQhoC5-9" style="edgeStyle=orthogonalEdgeStyle;rounded=0;orthogonalLoop=1;jettySize=auto;html=1;entryX=1;entryY=0.5;entryDx=0;entryDy=0;fillColor=#ffe6cc;strokeColor=#CC6600;" parent="1" source="CldbZqe4EOuW3ksQhoC5-8" target="CldbZqe4EOuW3ksQhoC5-4" edge="1">
          <mxGeometry relative="1" as="geometry" />
        </mxCell>
        <mxCell id="CldbZqe4EOuW3ksQhoC5-7" style="edgeStyle=orthogonalEdgeStyle;rounded=0;orthogonalLoop=1;jettySize=auto;html=1;fillColor=#f5f5f5;strokeColor=#666666;strokeWidth=2;" parent="1" source="CldbZqe4EOuW3ksQhoC5-4" edge="1">
          <mxGeometry relative="1" as="geometry">
            <mxPoint x="-320" y="400" as="targetPoint" />
            <Array as="points">
              <mxPoint x="-320" y="400" />
              <mxPoint x="-320" y="400" />
            </Array>
          </mxGeometry>
        </mxCell>
        <mxCell id="O1hQJYMaAqLJGhxnyRPd-47" style="edgeStyle=orthogonalEdgeStyle;rounded=0;orthogonalLoop=1;jettySize=auto;html=1;fontFamily=Ubuntu mono;fillColor=#dae8fc;gradientColor=#7ea6e0;strokeColor=#000000;strokeWidth=1;entryX=0;entryY=0.5;entryDx=0;entryDy=0;startArrow=oval;startFill=1;startSize=2;" parent="1" target="IVpCb85VTUGQt-k0vjLK-7" edge="1">
          <mxGeometry relative="1" as="geometry">
            <mxPoint x="400" y="410" as="targetPoint" />
            <mxPoint x="360" y="480" as="sourcePoint" />
            <Array as="points">
              <mxPoint x="360" y="480" />
              <mxPoint x="360" y="405" />
            </Array>
          </mxGeometry>
        </mxCell>
        <mxCell id="O1hQJYMaAqLJGhxnyRPd-42" value="" style="endArrow=classic;html=1;rounded=0;entryX=0;entryY=0.5;entryDx=0;entryDy=0;endSize=6;startSize=2;startArrow=oval;startFill=1;fontFamily=Ubuntu mono;strokeWidth=1;" parent="1" target="O1hQJYMaAqLJGhxnyRPd-16" edge="1">
          <mxGeometry width="50" height="50" relative="1" as="geometry">
            <mxPoint x="-120" y="390" as="sourcePoint" />
            <mxPoint x="-70" y="340" as="targetPoint" />
            <Array as="points">
              <mxPoint x="-120" y="390" />
            </Array>
          </mxGeometry>
        </mxCell>
        <mxCell id="IVpCb85VTUGQt-k0vjLK-4" style="edgeStyle=orthogonalEdgeStyle;rounded=0;orthogonalLoop=1;jettySize=auto;html=1;entryX=0;entryY=0.5;entryDx=0;entryDy=0;fillColor=#f8cecc;strokeColor=#b85450;strokeWidth=2;" parent="1" source="IVpCb85VTUGQt-k0vjLK-1" target="IVpCb85VTUGQt-k0vjLK-8" edge="1">
          <mxGeometry relative="1" as="geometry">
            <mxPoint x="290" y="490" as="targetPoint" />
            <Array as="points">
              <mxPoint x="370" y="520" />
              <mxPoint x="370" y="435" />
            </Array>
          </mxGeometry>
        </mxCell>
        <mxCell id="o48kV30xjnTPGN6VNpOy-20" style="edgeStyle=orthogonalEdgeStyle;rounded=0;orthogonalLoop=1;jettySize=auto;html=1;strokeColor=#CC6600;endSize=2;" parent="1" source="o48kV30xjnTPGN6VNpOy-19" edge="1">
          <mxGeometry relative="1" as="geometry">
            <mxPoint x="600" y="460" as="targetPoint" />
          </mxGeometry>
        </mxCell>
        <mxCell id="o48kV30xjnTPGN6VNpOy-9" style="edgeStyle=orthogonalEdgeStyle;rounded=0;orthogonalLoop=1;jettySize=auto;html=1;entryX=0;entryY=0.5;entryDx=0;entryDy=0;strokeWidth=1;" parent="1" source="o48kV30xjnTPGN6VNpOy-5" target="o48kV30xjnTPGN6VNpOy-12" edge="1">
          <mxGeometry relative="1" as="geometry">
            <mxPoint x="720" y="360" as="targetPoint" />
          </mxGeometry>
        </mxCell>
        <mxCell id="o48kV30xjnTPGN6VNpOy-18" style="edgeStyle=orthogonalEdgeStyle;rounded=0;orthogonalLoop=1;jettySize=auto;html=1;entryX=1;entryY=0.5;entryDx=0;entryDy=0;fillColor=#ffe6cc;strokeColor=#CC6600;endSize=2;" parent="1" source="o48kV30xjnTPGN6VNpOy-17" target="o48kV30xjnTPGN6VNpOy-11" edge="1">
          <mxGeometry relative="1" as="geometry" />
        </mxCell>
        <mxCell id="IVpCb85VTUGQt-k0vjLK-15" style="edgeStyle=orthogonalEdgeStyle;rounded=0;orthogonalLoop=1;jettySize=auto;html=1;entryX=1;entryY=0.5;entryDx=0;entryDy=0;fillColor=#ffe6cc;strokeColor=#CC6600;endSize=2;" parent="1" source="IVpCb85VTUGQt-k0vjLK-14" target="IVpCb85VTUGQt-k0vjLK-6" edge="1">
          <mxGeometry relative="1" as="geometry" />
        </mxCell>
        <mxCell id="O1hQJYMaAqLJGhxnyRPd-37" style="edgeStyle=orthogonalEdgeStyle;rounded=0;orthogonalLoop=1;jettySize=auto;html=1;entryX=0;entryY=0.5;entryDx=0;entryDy=0;fontFamily=Ubuntu mono;fillColor=#f5f5f5;gradientColor=#b3b3b3;strokeColor=#666666;strokeWidth=2;" parent="1" source="O1hQJYMaAqLJGhxnyRPd-11" target="O1hQJYMaAqLJGhxnyRPd-34" edge="1">
          <mxGeometry relative="1" as="geometry" />
        </mxCell>
        <mxCell id="O1hQJYMaAqLJGhxnyRPd-10" value="" style="group;fontFamily=Ubuntu mono;" parent="1" vertex="1" connectable="0">
          <mxGeometry x="-320" y="360" width="40" height="80" as="geometry" />
        </mxCell>
        <mxCell id="O1hQJYMaAqLJGhxnyRPd-11" value="&lt;font style=&quot;font-size: 14px;&quot;&gt;PC&lt;/font&gt;" style="rounded=0;whiteSpace=wrap;html=1;fontFamily=Ubuntu mono;" parent="O1hQJYMaAqLJGhxnyRPd-10" vertex="1">
          <mxGeometry width="40" height="80" as="geometry" />
        </mxCell>
        <mxCell id="O1hQJYMaAqLJGhxnyRPd-12" value="" style="endArrow=none;html=1;rounded=0;exitX=0;exitY=1;exitDx=0;exitDy=0;fontFamily=Ubuntu mono;" parent="O1hQJYMaAqLJGhxnyRPd-10" source="O1hQJYMaAqLJGhxnyRPd-11" edge="1">
          <mxGeometry width="50" height="50" relative="1" as="geometry">
            <mxPoint x="20" y="80" as="sourcePoint" />
            <mxPoint x="40" y="80" as="targetPoint" />
            <Array as="points">
              <mxPoint x="20" y="60" />
            </Array>
          </mxGeometry>
        </mxCell>
        <mxCell id="O1hQJYMaAqLJGhxnyRPd-27" value="" style="endArrow=classic;html=1;rounded=0;fontFamily=Ubuntu mono;" parent="1" edge="1">
          <mxGeometry width="50" height="50" relative="1" as="geometry">
            <mxPoint x="-260" y="220" as="sourcePoint" />
            <mxPoint x="-220" y="220" as="targetPoint" />
          </mxGeometry>
        </mxCell>
        <mxCell id="O1hQJYMaAqLJGhxnyRPd-28" value="" style="endArrow=classic;html=1;rounded=0;fontFamily=Ubuntu mono;startArrow=oval;startFill=1;startSize=2;strokeWidth=2;fillColor=#f5f5f5;gradientColor=#b3b3b3;strokeColor=#666666;" parent="1" edge="1">
          <mxGeometry width="50" height="50" relative="1" as="geometry">
            <mxPoint x="-260" y="400" as="sourcePoint" />
            <mxPoint x="-220" y="300" as="targetPoint" />
            <Array as="points">
              <mxPoint x="-260" y="300" />
            </Array>
          </mxGeometry>
        </mxCell>
        <mxCell id="O1hQJYMaAqLJGhxnyRPd-29" value="&lt;font style=&quot;font-size: 12px;&quot;&gt;+4&lt;/font&gt;" style="text;strokeColor=none;align=right;fillColor=none;html=1;verticalAlign=middle;whiteSpace=wrap;rounded=0;fontFamily=Ubuntu mono;" parent="1" vertex="1">
          <mxGeometry x="-280" y="215" width="20" height="10" as="geometry" />
        </mxCell>
        <mxCell id="O1hQJYMaAqLJGhxnyRPd-40" value="" style="endArrow=classic;html=1;rounded=0;entryX=0;entryY=0.5;entryDx=0;entryDy=0;fontFamily=Ubuntu mono;strokeWidth=1;" parent="1" target="O1hQJYMaAqLJGhxnyRPd-21" edge="1">
          <mxGeometry width="50" height="50" relative="1" as="geometry">
            <mxPoint x="-120" y="420" as="sourcePoint" />
            <mxPoint x="-110" y="370" as="targetPoint" />
          </mxGeometry>
        </mxCell>
        <mxCell id="O1hQJYMaAqLJGhxnyRPd-41" value="" style="endArrow=classic;html=1;rounded=0;entryX=0;entryY=0.5;entryDx=0;entryDy=0;startArrow=oval;startFill=1;startSize=2;fontFamily=Ubuntu mono;strokeWidth=2;fillColor=#f8cecc;strokeColor=#b85450;" parent="1" target="O1hQJYMaAqLJGhxnyRPd-15" edge="1">
          <mxGeometry width="50" height="50" relative="1" as="geometry">
            <mxPoint x="-120" y="420" as="sourcePoint" />
            <mxPoint x="-120" y="360" as="targetPoint" />
            <Array as="points">
              <mxPoint x="-120" y="360" />
            </Array>
          </mxGeometry>
        </mxCell>
        <mxCell id="O1hQJYMaAqLJGhxnyRPd-44" value="" style="group;fontFamily=Ubuntu mono;" parent="1" vertex="1" connectable="0">
          <mxGeometry x="40" y="280" width="160" height="200" as="geometry" />
        </mxCell>
        <mxCell id="O1hQJYMaAqLJGhxnyRPd-13" value="&lt;font style=&quot;font-size: 14px;&quot;&gt;RegFile&lt;/font&gt;" style="rounded=0;whiteSpace=wrap;html=1;labelPosition=center;verticalLabelPosition=top;align=center;verticalAlign=bottom;spacingTop=0;spacingBottom=-20;fontFamily=Ubuntu mono;" parent="O1hQJYMaAqLJGhxnyRPd-44" vertex="1">
          <mxGeometry width="160" height="200" as="geometry" />
        </mxCell>
        <mxCell id="O1hQJYMaAqLJGhxnyRPd-14" value="&lt;font style=&quot;font-size: 14px;&quot;&gt;dataW&lt;/font&gt;" style="text;strokeColor=none;align=left;fillColor=none;html=1;verticalAlign=middle;whiteSpace=wrap;rounded=0;fontFamily=Ubuntu mono;" parent="O1hQJYMaAqLJGhxnyRPd-44" vertex="1">
          <mxGeometry y="35" width="40" height="10" as="geometry" />
        </mxCell>
        <mxCell id="O1hQJYMaAqLJGhxnyRPd-15" value="&lt;font style=&quot;font-size: 14px;&quot;&gt;rsW&lt;/font&gt;" style="text;strokeColor=none;align=left;fillColor=none;html=1;verticalAlign=middle;whiteSpace=wrap;rounded=0;fontFamily=Ubuntu mono;" parent="O1hQJYMaAqLJGhxnyRPd-44" vertex="1">
          <mxGeometry y="75" width="30" height="10" as="geometry" />
        </mxCell>
        <mxCell id="O1hQJYMaAqLJGhxnyRPd-16" value="&lt;font style=&quot;font-size: 14px;&quot;&gt;rsR1&lt;/font&gt;" style="text;strokeColor=none;align=left;fillColor=none;html=1;verticalAlign=middle;whiteSpace=wrap;rounded=0;fontFamily=Ubuntu mono;" parent="O1hQJYMaAqLJGhxnyRPd-44" vertex="1">
          <mxGeometry y="105" width="30" height="10" as="geometry" />
        </mxCell>
        <mxCell id="O1hQJYMaAqLJGhxnyRPd-18" value="" style="endArrow=none;html=1;rounded=0;fontFamily=Ubuntu mono;" parent="O1hQJYMaAqLJGhxnyRPd-44" edge="1">
          <mxGeometry width="50" height="50" relative="1" as="geometry">
            <mxPoint x="110" y="200" as="sourcePoint" />
            <mxPoint x="150" y="200" as="targetPoint" />
            <Array as="points">
              <mxPoint x="130" y="180" />
            </Array>
          </mxGeometry>
        </mxCell>
        <mxCell id="O1hQJYMaAqLJGhxnyRPd-19" value="&lt;font style=&quot;font-size: 14px;&quot;&gt;data1&lt;/font&gt;" style="text;strokeColor=none;align=right;fillColor=none;html=1;verticalAlign=middle;whiteSpace=wrap;rounded=0;fontFamily=Ubuntu mono;" parent="O1hQJYMaAqLJGhxnyRPd-44" vertex="1">
          <mxGeometry x="120" y="60" width="40" height="10" as="geometry" />
        </mxCell>
        <mxCell id="O1hQJYMaAqLJGhxnyRPd-20" value="&lt;font style=&quot;font-size: 14px;&quot;&gt;data2&lt;/font&gt;" style="text;strokeColor=none;align=right;fillColor=none;html=1;verticalAlign=middle;whiteSpace=wrap;rounded=0;fontFamily=Ubuntu mono;" parent="O1hQJYMaAqLJGhxnyRPd-44" vertex="1">
          <mxGeometry x="120" y="120" width="40" height="10" as="geometry" />
        </mxCell>
        <mxCell id="O1hQJYMaAqLJGhxnyRPd-21" value="&lt;font style=&quot;font-size: 14px;&quot;&gt;rsR2&lt;/font&gt;" style="text;strokeColor=none;align=left;fillColor=none;html=1;verticalAlign=middle;whiteSpace=wrap;rounded=0;fontFamily=Ubuntu mono;" parent="O1hQJYMaAqLJGhxnyRPd-44" vertex="1">
          <mxGeometry y="135" width="30" height="10" as="geometry" />
        </mxCell>
        <mxCell id="O1hQJYMaAqLJGhxnyRPd-51" value="" style="group;fontFamily=Ubuntu mono;" parent="1" vertex="1" connectable="0">
          <mxGeometry x="-220" y="200" width="45" height="120" as="geometry" />
        </mxCell>
        <mxCell id="O1hQJYMaAqLJGhxnyRPd-22" value="" style="shape=parallelogram;perimeter=parallelogramPerimeter;whiteSpace=wrap;html=1;fixedSize=1;direction=south;size=40;strokeColor=none;portConstraintRotation=0;noLabel=0;fixedWidth=0;autosize=0;comic=0;treeMoving=0;fontFamily=Ubuntu mono;" parent="O1hQJYMaAqLJGhxnyRPd-51" vertex="1">
          <mxGeometry width="40" height="80" as="geometry" />
        </mxCell>
        <mxCell id="O1hQJYMaAqLJGhxnyRPd-23" value="" style="shape=parallelogram;perimeter=parallelogramPerimeter;whiteSpace=wrap;html=1;fixedSize=1;direction=south;size=40;rotation=-180;flipV=1;strokeColor=none;fontFamily=Ubuntu mono;" parent="O1hQJYMaAqLJGhxnyRPd-51" vertex="1">
          <mxGeometry y="40" width="40" height="80" as="geometry" />
        </mxCell>
        <mxCell id="O1hQJYMaAqLJGhxnyRPd-24" value="" style="endArrow=none;html=1;rounded=0;fontFamily=Ubuntu mono;" parent="O1hQJYMaAqLJGhxnyRPd-51" edge="1">
          <mxGeometry width="50" height="50" relative="1" as="geometry">
            <mxPoint y="120" as="sourcePoint" />
            <mxPoint y="120" as="targetPoint" />
            <Array as="points">
              <mxPoint x="40" y="80" />
              <mxPoint x="40" y="40" />
              <mxPoint />
              <mxPoint y="50" />
              <mxPoint x="10" y="60" />
              <mxPoint y="70" />
            </Array>
          </mxGeometry>
        </mxCell>
        <mxCell id="O1hQJYMaAqLJGhxnyRPd-25" value="&lt;font style=&quot;font-size: 14px;&quot;&gt;Add&lt;/font&gt;" style="text;strokeColor=none;align=center;fillColor=none;html=1;verticalAlign=middle;whiteSpace=wrap;rounded=0;fontFamily=Ubuntu mono;" parent="O1hQJYMaAqLJGhxnyRPd-51" vertex="1">
          <mxGeometry x="10" y="55" width="25" height="10" as="geometry" />
        </mxCell>
        <mxCell id="O1hQJYMaAqLJGhxnyRPd-52" value="&lt;font style=&quot;font-size: 12px;&quot;&gt;inst[11:7]&lt;/font&gt;" style="text;strokeColor=none;align=left;fillColor=none;html=1;verticalAlign=middle;whiteSpace=wrap;rounded=0;fontFamily=Ubuntu mono;fontSize=12;" parent="1" vertex="1">
          <mxGeometry x="-120" y="345" width="80" height="10" as="geometry" />
        </mxCell>
        <mxCell id="O1hQJYMaAqLJGhxnyRPd-53" value="&lt;font style=&quot;font-size: 12px;&quot;&gt;inst[19:15]&lt;/font&gt;" style="text;strokeColor=none;align=left;fillColor=none;html=1;verticalAlign=middle;whiteSpace=wrap;rounded=0;fontFamily=Ubuntu mono;fontSize=12;" parent="1" vertex="1">
          <mxGeometry x="-120" y="375" width="80" height="10" as="geometry" />
        </mxCell>
        <mxCell id="O1hQJYMaAqLJGhxnyRPd-54" value="&lt;font style=&quot;font-size: 12px;&quot;&gt;pc&lt;/font&gt;" style="text;strokeColor=none;align=left;fillColor=none;html=1;verticalAlign=middle;whiteSpace=wrap;rounded=0;fontFamily=Ubuntu mono;" parent="1" vertex="1">
          <mxGeometry x="-280" y="405" width="20" height="10" as="geometry" />
        </mxCell>
        <mxCell id="O1hQJYMaAqLJGhxnyRPd-55" value="&lt;font style=&quot;font-size: 12px;&quot;&gt;R[rs1]&lt;/font&gt;" style="text;strokeColor=none;align=left;fillColor=none;html=1;verticalAlign=middle;whiteSpace=wrap;rounded=0;fontFamily=Ubuntu mono;fontSize=12;" parent="1" vertex="1">
          <mxGeometry x="230" y="265" width="40" height="10" as="geometry" />
        </mxCell>
        <mxCell id="O1hQJYMaAqLJGhxnyRPd-56" value="&lt;font style=&quot;font-size: 12px;&quot;&gt;R[rs2]&lt;/font&gt;" style="text;strokeColor=none;align=left;fillColor=none;html=1;verticalAlign=middle;whiteSpace=wrap;rounded=0;fontFamily=Ubuntu mono;fontSize=12;" parent="1" vertex="1">
          <mxGeometry x="230" y="485" width="40" height="10" as="geometry" />
        </mxCell>
        <mxCell id="O1hQJYMaAqLJGhxnyRPd-57" value="&lt;font style=&quot;font-size: 12px;&quot;&gt;pc+4&lt;/font&gt;" style="text;strokeColor=none;align=left;fillColor=none;html=1;verticalAlign=middle;whiteSpace=wrap;rounded=0;fontFamily=Ubuntu mono;" parent="1" vertex="1">
          <mxGeometry x="-400" y="370" width="30" height="10" as="geometry" />
        </mxCell>
        <mxCell id="O1hQJYMaAqLJGhxnyRPd-58" value="&lt;font style=&quot;font-size: 12px;&quot;&gt;alu&lt;/font&gt;" style="text;strokeColor=none;align=left;fillColor=none;html=1;verticalAlign=middle;whiteSpace=wrap;rounded=0;fontFamily=Ubuntu mono;fontSize=12;" parent="1" vertex="1">
          <mxGeometry x="655" y="315" width="20" height="10" as="geometry" />
        </mxCell>
        <mxCell id="O1hQJYMaAqLJGhxnyRPd-59" value="&lt;font style=&quot;font-size: 12px;&quot;&gt;inst[24:20]&lt;/font&gt;" style="text;strokeColor=none;align=left;fillColor=none;html=1;verticalAlign=middle;whiteSpace=wrap;rounded=0;fontFamily=Ubuntu mono;fontSize=12;" parent="1" vertex="1">
          <mxGeometry x="-120" y="405" width="80" height="10" as="geometry" />
        </mxCell>
        <mxCell id="nMF6nW8Z0WpCOARFJ0UV-2" value="&lt;font style=&quot;font-size: 28px;&quot;&gt;PC = PC + 4&lt;/font&gt;" style="text;strokeColor=none;align=center;fillColor=none;html=1;verticalAlign=middle;whiteSpace=wrap;rounded=0;fontFamily=Ubuntu mono;fontStyle=1" parent="1" vertex="1">
          <mxGeometry x="-400" y="40" width="280" height="40" as="geometry" />
        </mxCell>
        <mxCell id="nMF6nW8Z0WpCOARFJ0UV-3" value="&lt;font style=&quot;font-size: 28px;&quot;&gt;alu = imm &amp;lt;&amp;lt; 12&lt;/font&gt;" style="text;strokeColor=none;align=center;fillColor=none;html=1;verticalAlign=middle;whiteSpace=wrap;rounded=0;fontFamily=Ubuntu mono;fontStyle=1" parent="1" vertex="1">
          <mxGeometry x="-120" y="40" width="480" height="40" as="geometry" />
        </mxCell>
        <mxCell id="nMF6nW8Z0WpCOARFJ0UV-5" value="&lt;font color=&quot;#666666&quot;&gt;Increment PC to next instruction&lt;/font&gt;" style="text;strokeColor=none;align=left;fillColor=none;html=1;verticalAlign=middle;whiteSpace=wrap;rounded=0;fontSize=20;" parent="1" vertex="1">
          <mxGeometry x="-400" y="110" width="240" height="40" as="geometry" />
        </mxCell>
        <mxCell id="nMF6nW8Z0WpCOARFJ0UV-6" value="&lt;font color=&quot;#b85450&quot;&gt;Generate&amp;nbsp;&lt;font face=&quot;Ubuntu mono&quot;&gt;imm&lt;/font&gt;&amp;nbsp;with upper 20-bits&lt;/font&gt;" style="text;strokeColor=none;align=left;fillColor=none;html=1;verticalAlign=middle;whiteSpace=wrap;rounded=0;fontSize=20;" parent="1" vertex="1">
          <mxGeometry x="-160" y="110" width="240" height="40" as="geometry" />
        </mxCell>
        <mxCell id="nMF6nW8Z0WpCOARFJ0UV-7" value="&lt;font color=&quot;#6c8ebf&quot;&gt;Output only &lt;/font&gt;&lt;font color=&quot;#b85450&quot; style=&quot;&quot; face=&quot;Ubuntu mono&quot;&gt;imm&amp;nbsp;&lt;/font&gt;&lt;div&gt;&lt;font color=&quot;#6c8ebf&quot; style=&quot;&quot; face=&quot;Ubuntu mono&quot;&gt;(&lt;/font&gt;&lt;font color=&quot;#cc6600&quot; style=&quot;&quot; face=&quot;Ubuntu mono&quot;&gt;ALUSel&lt;/font&gt;&lt;font color=&quot;#6c8ebf&quot; style=&quot;&quot; face=&quot;Ubuntu mono&quot;&gt;=B)&lt;/font&gt;&lt;/div&gt;" style="text;strokeColor=none;align=left;fillColor=none;html=1;verticalAlign=middle;whiteSpace=wrap;rounded=0;fontSize=20;" parent="1" vertex="1">
          <mxGeometry x="170" y="110" width="220" height="40" as="geometry" />
        </mxCell>
        <mxCell id="T4VBUr5XgweIZfI1WmH1-5" value="" style="endArrow=classic;html=1;rounded=0;startSize=6;endSize=2;strokeColor=#CC6600;exitX=0.5;exitY=0;exitDx=0;exitDy=0;" parent="1" source="T4VBUr5XgweIZfI1WmH1-4" edge="1">
          <mxGeometry width="50" height="50" relative="1" as="geometry">
            <mxPoint x="459.8" y="560" as="sourcePoint" />
            <mxPoint x="460" y="420" as="targetPoint" />
            <Array as="points" />
          </mxGeometry>
        </mxCell>
        <mxCell id="GMoKfWXGdyq1IP5k9Yxu-2" value="" style="endArrow=classic;html=1;rounded=0;entryX=0.25;entryY=1;entryDx=0;entryDy=0;startSize=6;endSize=2;strokeColor=#CC6600;" parent="1" edge="1">
          <mxGeometry width="50" height="50" relative="1" as="geometry">
            <mxPoint x="119.88" y="560" as="sourcePoint" />
            <mxPoint x="119.88" y="480" as="targetPoint" />
          </mxGeometry>
        </mxCell>
        <mxCell id="T4VBUr5XgweIZfI1WmH1-2" value="" style="endArrow=classic;html=1;rounded=0;strokeWidth=2;fillColor=#f8cecc;strokeColor=#b85450;startArrow=oval;startFill=1;startSize=2;" parent="1" edge="1">
          <mxGeometry width="50" height="50" relative="1" as="geometry">
            <mxPoint x="-140" y="420" as="sourcePoint" />
            <mxPoint x="-140" y="560" as="targetPoint" />
          </mxGeometry>
        </mxCell>
        <mxCell id="GMoKfWXGdyq1IP5k9Yxu-4" value="" style="group" parent="1" vertex="1" connectable="0">
          <mxGeometry x="-240" y="360" width="80" height="120" as="geometry" />
        </mxCell>
        <mxCell id="O1hQJYMaAqLJGhxnyRPd-33" value="&lt;font style=&quot;font-size: 14px;&quot;&gt;IMEM&lt;/font&gt;" style="rounded=0;whiteSpace=wrap;html=1;labelPosition=center;verticalLabelPosition=middle;align=left;verticalAlign=bottom;spacingTop=0;spacingBottom=0;spacingRight=0;spacingLeft=0;fontFamily=Ubuntu mono;" parent="GMoKfWXGdyq1IP5k9Yxu-4" vertex="1">
          <mxGeometry width="80" height="120" as="geometry" />
        </mxCell>
        <mxCell id="O1hQJYMaAqLJGhxnyRPd-34" value="&lt;font style=&quot;font-size: 14px;&quot;&gt;addr&lt;/font&gt;" style="text;strokeColor=none;align=left;fillColor=none;html=1;verticalAlign=middle;whiteSpace=wrap;rounded=0;fontFamily=Ubuntu mono;fontSize=14;" parent="GMoKfWXGdyq1IP5k9Yxu-4" vertex="1">
          <mxGeometry y="35" width="40" height="10" as="geometry" />
        </mxCell>
        <mxCell id="O1hQJYMaAqLJGhxnyRPd-35" value="&lt;font style=&quot;font-size: 14px;&quot;&gt;inst&lt;/font&gt;" style="text;strokeColor=none;align=right;fillColor=none;html=1;verticalAlign=middle;whiteSpace=wrap;rounded=0;fontFamily=Ubuntu mono;fontSize=14;" parent="GMoKfWXGdyq1IP5k9Yxu-4" vertex="1">
          <mxGeometry x="40" y="55" width="40" height="10" as="geometry" />
        </mxCell>
        <mxCell id="IVpCb85VTUGQt-k0vjLK-2" value="" style="endArrow=classic;html=1;rounded=0;fillColor=#f8cecc;strokeColor=#b85450;strokeWidth=2;startArrow=oval;startFill=1;startSize=2;" parent="1" edge="1">
          <mxGeometry width="50" height="50" relative="1" as="geometry">
            <mxPoint x="-140" y="520" as="sourcePoint" />
            <mxPoint x="-30" y="520" as="targetPoint" />
          </mxGeometry>
        </mxCell>
        <mxCell id="IVpCb85VTUGQt-k0vjLK-3" value="&lt;font style=&quot;font-size: 12px;&quot;&gt;inst[31:7]&lt;/font&gt;" style="text;strokeColor=none;align=left;fillColor=none;html=1;verticalAlign=middle;whiteSpace=wrap;rounded=0;fontFamily=Ubuntu mono;fontSize=12;" parent="1" vertex="1">
          <mxGeometry x="-140" y="505" width="80" height="10" as="geometry" />
        </mxCell>
        <mxCell id="IVpCb85VTUGQt-k0vjLK-13" style="edgeStyle=orthogonalEdgeStyle;rounded=0;orthogonalLoop=1;jettySize=auto;html=1;entryX=0;entryY=0.5;entryDx=0;entryDy=0;fillColor=#dae8fc;strokeColor=#B85450;strokeWidth=2;" parent="1" source="IVpCb85VTUGQt-k0vjLK-6" target="O1hQJYMaAqLJGhxnyRPd-45" edge="1">
          <mxGeometry relative="1" as="geometry" />
        </mxCell>
        <mxCell id="IVpCb85VTUGQt-k0vjLK-12" value="" style="group" parent="1" vertex="1" connectable="0">
          <mxGeometry x="390" y="390" width="20" height="60" as="geometry" />
        </mxCell>
        <mxCell id="IVpCb85VTUGQt-k0vjLK-6" value="" style="shape=trapezoid;perimeter=trapezoidPerimeter;whiteSpace=wrap;html=1;fixedSize=1;rotation=90;size=10;movable=1;resizable=1;rotatable=1;deletable=1;editable=1;locked=0;connectable=1;" parent="IVpCb85VTUGQt-k0vjLK-12" vertex="1">
          <mxGeometry x="-20" y="20" width="60" height="20" as="geometry" />
        </mxCell>
        <mxCell id="IVpCb85VTUGQt-k0vjLK-7" value="0" style="text;strokeColor=none;align=left;fillColor=none;html=1;verticalAlign=middle;whiteSpace=wrap;rounded=0;fontFamily=Ubuntu mono;" parent="IVpCb85VTUGQt-k0vjLK-12" vertex="1">
          <mxGeometry y="10" width="10" height="10" as="geometry" />
        </mxCell>
        <mxCell id="IVpCb85VTUGQt-k0vjLK-8" value="1" style="text;strokeColor=#6c8ebf;align=left;fillColor=#dae8fc;html=1;verticalAlign=middle;whiteSpace=wrap;rounded=0;fontFamily=Ubuntu mono;" parent="IVpCb85VTUGQt-k0vjLK-12" vertex="1">
          <mxGeometry y="40" width="10" height="10" as="geometry" />
        </mxCell>
        <mxCell id="IVpCb85VTUGQt-k0vjLK-20" value="" style="endArrow=classic;html=1;rounded=0;startSize=6;endSize=2;strokeColor=#CC6600;exitX=0.5;exitY=0;exitDx=0;exitDy=0;" parent="1" source="IVpCb85VTUGQt-k0vjLK-19" edge="1">
          <mxGeometry width="50" height="50" relative="1" as="geometry">
            <mxPoint x="-0.12000000000000455" y="560" as="sourcePoint" />
            <mxPoint y="540" as="targetPoint" />
          </mxGeometry>
        </mxCell>
        <mxCell id="GMoKfWXGdyq1IP5k9Yxu-1" value="&lt;font face=&quot;Ubuntu mono&quot; style=&quot;font-size: 14px;&quot;&gt;Control Logic&lt;/font&gt;" style="rounded=0;whiteSpace=wrap;html=1;align=left;labelPosition=center;verticalLabelPosition=middle;verticalAlign=bottom;spacingTop=0;spacingRight=0;" parent="1" vertex="1">
          <mxGeometry x="-400" y="560" width="1120" height="50" as="geometry" />
        </mxCell>
        <mxCell id="IVpCb85VTUGQt-k0vjLK-1" value="&lt;font face=&quot;Ubuntu mono&quot; style=&quot;font-size: 14px;&quot;&gt;Imm.&lt;/font&gt;&lt;div style=&quot;font-size: 14px;&quot;&gt;&lt;font face=&quot;Ubuntu mono&quot; style=&quot;font-size: 14px;&quot;&gt;Gen&lt;/font&gt;&lt;/div&gt;" style="rounded=1;whiteSpace=wrap;html=1;align=left;" parent="1" vertex="1">
          <mxGeometry x="-30" y="500" width="60" height="40" as="geometry" />
        </mxCell>
        <mxCell id="GMoKfWXGdyq1IP5k9Yxu-3" value="&lt;font style=&quot;font-size: 14px;&quot; color=&quot;#cc6600&quot;&gt;RegWEn&lt;/font&gt;&lt;div style=&quot;&quot;&gt;&lt;font color=&quot;#d79b00&quot; style=&quot;font-size: 12px;&quot;&gt;1&lt;/font&gt;&lt;/div&gt;" style="text;strokeColor=none;align=center;fillColor=none;html=1;verticalAlign=middle;whiteSpace=wrap;rounded=0;fontFamily=Ubuntu mono;" parent="1" vertex="1">
          <mxGeometry x="90" y="560" width="60" height="30" as="geometry" />
        </mxCell>
        <mxCell id="T4VBUr5XgweIZfI1WmH1-4" value="&lt;font style=&quot;font-size: 14px;&quot; color=&quot;#cc6600&quot;&gt;ALUSel&lt;/font&gt;&lt;div style=&quot;&quot;&gt;&lt;font color=&quot;#6c8ebf&quot;&gt;B&lt;/font&gt;&lt;/div&gt;" style="text;strokeColor=none;align=center;fillColor=none;html=1;verticalAlign=middle;whiteSpace=wrap;rounded=0;fontFamily=Ubuntu mono;" parent="1" vertex="1">
          <mxGeometry x="440" y="560" width="40" height="30" as="geometry" />
        </mxCell>
        <mxCell id="T4VBUr5XgweIZfI1WmH1-3" value="&lt;font style=&quot;font-size: 12px;&quot;&gt;inst[31:0]&lt;/font&gt;" style="text;strokeColor=none;align=center;fillColor=none;html=1;verticalAlign=middle;whiteSpace=wrap;rounded=0;fontFamily=Ubuntu mono;fontSize=12;" parent="1" vertex="1">
          <mxGeometry x="-180" y="560" width="80" height="20" as="geometry" />
        </mxCell>
        <mxCell id="IVpCb85VTUGQt-k0vjLK-14" value="&lt;font style=&quot;font-size: 10px;&quot; color=&quot;#cc6600&quot;&gt;Bsel&lt;/font&gt;&lt;div style=&quot;&quot;&gt;&lt;font color=&quot;#b85450&quot; style=&quot;font-size: 10px;&quot;&gt;1&lt;/font&gt;&lt;/div&gt;" style="text;strokeColor=none;align=center;fillColor=none;html=1;verticalAlign=middle;whiteSpace=wrap;rounded=0;fontFamily=Ubuntu mono;" parent="1" vertex="1">
          <mxGeometry x="390" y="560" width="20" height="30" as="geometry" />
        </mxCell>
        <mxCell id="IVpCb85VTUGQt-k0vjLK-19" value="&lt;font style=&quot;font-size: 14px;&quot; color=&quot;#cc6600&quot;&gt;ImmSel&lt;/font&gt;&lt;div style=&quot;&quot;&gt;&lt;font color=&quot;#b85450&quot; style=&quot;font-size: 12px;&quot;&gt;U&lt;/font&gt;&lt;/div&gt;" style="text;strokeColor=none;align=center;fillColor=none;html=1;verticalAlign=middle;whiteSpace=wrap;rounded=0;fontFamily=Ubuntu mono;" parent="1" vertex="1">
          <mxGeometry x="-30" y="560" width="60" height="30" as="geometry" />
        </mxCell>
        <mxCell id="o48kV30xjnTPGN6VNpOy-7" value="" style="endArrow=classic;html=1;rounded=0;entryX=0;entryY=0.5;entryDx=0;entryDy=0;strokeWidth=1;startArrow=oval;startFill=1;startSize=2;" parent="1" target="o48kV30xjnTPGN6VNpOy-4" edge="1">
          <mxGeometry width="50" height="50" relative="1" as="geometry">
            <mxPoint x="520" y="380" as="sourcePoint" />
            <mxPoint x="530" y="330" as="targetPoint" />
          </mxGeometry>
        </mxCell>
        <mxCell id="IVpCb85VTUGQt-k0vjLK-21" value="&lt;font style=&quot;font-size: 12px;&quot;&gt;imm[31:0]&lt;/font&gt;" style="text;strokeColor=none;align=left;fillColor=none;html=1;verticalAlign=middle;whiteSpace=wrap;rounded=0;fontFamily=Ubuntu mono;fontSize=12;" parent="1" vertex="1">
          <mxGeometry x="30" y="505" width="80" height="10" as="geometry" />
        </mxCell>
        <mxCell id="o48kV30xjnTPGN6VNpOy-1" value="&lt;font style=&quot;font-size: 28px;&quot;&gt;R[rd] = alu&lt;/font&gt;" style="text;strokeColor=none;align=center;fillColor=none;html=1;verticalAlign=middle;whiteSpace=wrap;rounded=0;fontFamily=Ubuntu mono;fontStyle=1" parent="1" vertex="1">
          <mxGeometry x="360" y="40" width="360" height="40" as="geometry" />
        </mxCell>
        <mxCell id="o48kV30xjnTPGN6VNpOy-2" value="" style="group;align=left;" parent="1" vertex="1" connectable="0">
          <mxGeometry x="560" y="340" width="80" height="120" as="geometry" />
        </mxCell>
        <mxCell id="o48kV30xjnTPGN6VNpOy-3" value="&lt;font style=&quot;font-size: 14px;&quot;&gt;DMEM&lt;/font&gt;" style="rounded=0;whiteSpace=wrap;html=1;labelPosition=center;verticalLabelPosition=middle;align=left;verticalAlign=bottom;spacingTop=0;spacingBottom=0;spacingRight=0;spacingLeft=0;fontFamily=Ubuntu mono;" parent="o48kV30xjnTPGN6VNpOy-2" vertex="1">
          <mxGeometry width="80" height="120" as="geometry" />
        </mxCell>
        <mxCell id="o48kV30xjnTPGN6VNpOy-4" value="&lt;font style=&quot;font-size: 14px;&quot;&gt;addr&lt;/font&gt;" style="text;strokeColor=none;align=left;fillColor=none;html=1;verticalAlign=middle;whiteSpace=wrap;rounded=0;fontFamily=Ubuntu mono;fontSize=14;" parent="o48kV30xjnTPGN6VNpOy-2" vertex="1">
          <mxGeometry y="35" width="40" height="10" as="geometry" />
        </mxCell>
        <mxCell id="o48kV30xjnTPGN6VNpOy-5" value="&lt;font style=&quot;font-size: 14px;&quot;&gt;dataR&lt;/font&gt;" style="text;strokeColor=none;align=right;fillColor=none;html=1;verticalAlign=middle;whiteSpace=wrap;rounded=0;fontFamily=Ubuntu mono;fontSize=14;" parent="o48kV30xjnTPGN6VNpOy-2" vertex="1">
          <mxGeometry x="30" y="15" width="50" height="10" as="geometry" />
        </mxCell>
        <mxCell id="o48kV30xjnTPGN6VNpOy-6" value="" style="endArrow=none;html=1;rounded=0;fontFamily=Ubuntu mono;" parent="o48kV30xjnTPGN6VNpOy-2" edge="1">
          <mxGeometry width="50" height="50" relative="1" as="geometry">
            <mxPoint x="40" y="120" as="sourcePoint" />
            <mxPoint x="80" y="120" as="targetPoint" />
            <Array as="points">
              <mxPoint x="60" y="100" />
            </Array>
          </mxGeometry>
        </mxCell>
        <mxCell id="o48kV30xjnTPGN6VNpOy-21" value="&lt;font style=&quot;font-size: 14px;&quot;&gt;dataW&lt;/font&gt;" style="text;strokeColor=none;align=left;fillColor=none;html=1;verticalAlign=middle;whiteSpace=wrap;rounded=0;fontFamily=Ubuntu mono;fontSize=14;" parent="o48kV30xjnTPGN6VNpOy-2" vertex="1">
          <mxGeometry y="75" width="40" height="10" as="geometry" />
        </mxCell>
        <mxCell id="O1hQJYMaAqLJGhxnyRPd-50" value="" style="group;fontFamily=Ubuntu mono;" parent="1" vertex="1" connectable="0">
          <mxGeometry x="440" y="320" width="40" height="120" as="geometry" />
        </mxCell>
        <mxCell id="O1hQJYMaAqLJGhxnyRPd-1" value="" style="shape=parallelogram;perimeter=parallelogramPerimeter;whiteSpace=wrap;html=1;fixedSize=1;direction=south;size=40;strokeColor=none;portConstraintRotation=0;noLabel=0;fixedWidth=0;autosize=0;comic=0;treeMoving=0;fontFamily=Ubuntu mono;" parent="O1hQJYMaAqLJGhxnyRPd-50" vertex="1">
          <mxGeometry width="40" height="80" as="geometry" />
        </mxCell>
        <mxCell id="O1hQJYMaAqLJGhxnyRPd-2" value="" style="shape=parallelogram;perimeter=parallelogramPerimeter;whiteSpace=wrap;html=1;fixedSize=1;direction=south;size=40;rotation=-180;flipV=1;strokeColor=none;fontFamily=Ubuntu mono;" parent="O1hQJYMaAqLJGhxnyRPd-50" vertex="1">
          <mxGeometry y="40" width="40" height="80" as="geometry" />
        </mxCell>
        <mxCell id="O1hQJYMaAqLJGhxnyRPd-3" value="" style="endArrow=none;html=1;rounded=0;fontFamily=Ubuntu mono;" parent="O1hQJYMaAqLJGhxnyRPd-50" edge="1">
          <mxGeometry width="50" height="50" relative="1" as="geometry">
            <mxPoint y="120" as="sourcePoint" />
            <mxPoint y="120" as="targetPoint" />
            <Array as="points">
              <mxPoint x="40" y="80" />
              <mxPoint x="40" y="40" />
              <mxPoint />
              <mxPoint y="50" />
              <mxPoint x="10" y="60" />
              <mxPoint y="70" />
            </Array>
          </mxGeometry>
        </mxCell>
        <mxCell id="O1hQJYMaAqLJGhxnyRPd-4" value="&lt;font style=&quot;font-size: 14px;&quot;&gt;ALU&lt;/font&gt;" style="text;strokeColor=none;align=center;fillColor=none;html=1;verticalAlign=middle;whiteSpace=wrap;rounded=0;fontFamily=Ubuntu mono;" parent="O1hQJYMaAqLJGhxnyRPd-50" vertex="1">
          <mxGeometry x="10" y="55" width="25" height="10" as="geometry" />
        </mxCell>
        <mxCell id="O1hQJYMaAqLJGhxnyRPd-43" value="&lt;font style=&quot;font-size: 14px;&quot;&gt;A&lt;/font&gt;" style="text;strokeColor=none;align=left;fillColor=none;html=1;verticalAlign=middle;whiteSpace=wrap;rounded=0;fontFamily=Ubuntu mono;" parent="O1hQJYMaAqLJGhxnyRPd-50" vertex="1">
          <mxGeometry y="15" width="10" height="10" as="geometry" />
        </mxCell>
        <mxCell id="O1hQJYMaAqLJGhxnyRPd-45" value="&lt;font style=&quot;font-size: 14px;&quot;&gt;B&lt;/font&gt;" style="text;strokeColor=none;align=left;fillColor=none;html=1;verticalAlign=middle;whiteSpace=wrap;rounded=0;fontFamily=Ubuntu mono;" parent="O1hQJYMaAqLJGhxnyRPd-50" vertex="1">
          <mxGeometry y="95" width="10" height="10" as="geometry" />
        </mxCell>
        <mxCell id="o48kV30xjnTPGN6VNpOy-8" value="" style="endArrow=classic;html=1;rounded=0;entryX=0;entryY=0.5;entryDx=0;entryDy=0;startArrow=none;startFill=0;startSize=2;strokeWidth=2;fillColor=#dae8fc;strokeColor=#6c8ebf;" parent="1" target="o48kV30xjnTPGN6VNpOy-13" edge="1">
          <mxGeometry width="50" height="50" relative="1" as="geometry">
            <mxPoint x="480" y="380" as="sourcePoint" />
            <mxPoint x="720" y="320" as="targetPoint" />
            <Array as="points">
              <mxPoint x="520" y="380" />
              <mxPoint x="520" y="330" />
            </Array>
          </mxGeometry>
        </mxCell>
        <mxCell id="o48kV30xjnTPGN6VNpOy-15" value="mem" style="text;strokeColor=none;align=left;fillColor=none;html=1;verticalAlign=middle;whiteSpace=wrap;rounded=0;fontFamily=Ubuntu mono;fontSize=12;" parent="1" vertex="1">
          <mxGeometry x="655" y="365" width="20" height="10" as="geometry" />
        </mxCell>
        <mxCell id="o48kV30xjnTPGN6VNpOy-17" value="&lt;font style=&quot;font-size: 14px;&quot; color=&quot;#cc6600&quot;&gt;WBSel&lt;/font&gt;&lt;div style=&quot;&quot;&gt;&lt;font color=&quot;#d79b00&quot;&gt;1&lt;/font&gt;&lt;/div&gt;" style="text;strokeColor=none;align=center;fillColor=none;html=1;verticalAlign=middle;whiteSpace=wrap;rounded=0;fontFamily=Ubuntu mono;" parent="1" vertex="1">
          <mxGeometry x="670" y="560" width="40" height="30" as="geometry" />
        </mxCell>
        <mxCell id="o48kV30xjnTPGN6VNpOy-19" value="&lt;font style=&quot;font-size: 14px;&quot; color=&quot;#cc6600&quot;&gt;MemRW&lt;/font&gt;&lt;div style=&quot;&quot;&gt;&lt;font color=&quot;#9673a6&quot;&gt;Read&lt;/font&gt;&lt;/div&gt;" style="text;strokeColor=none;align=center;fillColor=none;html=1;verticalAlign=middle;whiteSpace=wrap;rounded=0;fontFamily=Ubuntu mono;" parent="1" vertex="1">
          <mxGeometry x="570" y="560" width="60" height="30" as="geometry" />
        </mxCell>
        <mxCell id="CldbZqe4EOuW3ksQhoC5-1" value="&lt;font face=&quot;Ubuntu mono&quot;&gt;&lt;span style=&quot;font-size: 14px;&quot;&gt;Branch&lt;/span&gt;&lt;/font&gt;&lt;div&gt;&lt;font face=&quot;Ubuntu mono&quot;&gt;&lt;span style=&quot;font-size: 14px;&quot;&gt;Comp.&lt;/span&gt;&lt;/font&gt;&lt;/div&gt;" style="rounded=1;whiteSpace=wrap;html=1;align=center;" parent="1" vertex="1">
          <mxGeometry x="250" y="325" width="100" height="100" as="geometry" />
        </mxCell>
        <mxCell id="CldbZqe4EOuW3ksQhoC5-3" value="" style="group" parent="1" vertex="1" connectable="0">
          <mxGeometry x="-360" y="370" width="20" height="60" as="geometry" />
        </mxCell>
        <mxCell id="CldbZqe4EOuW3ksQhoC5-4" value="" style="shape=trapezoid;perimeter=trapezoidPerimeter;whiteSpace=wrap;html=1;fixedSize=1;rotation=90;size=10;movable=1;resizable=1;rotatable=1;deletable=1;editable=1;locked=0;connectable=1;" parent="CldbZqe4EOuW3ksQhoC5-3" vertex="1">
          <mxGeometry x="-20" y="20" width="60" height="20" as="geometry" />
        </mxCell>
        <mxCell id="CldbZqe4EOuW3ksQhoC5-5" value="1" style="text;align=left;html=1;verticalAlign=middle;whiteSpace=wrap;rounded=0;fontFamily=Ubuntu mono;" parent="CldbZqe4EOuW3ksQhoC5-3" vertex="1">
          <mxGeometry y="40" width="10" height="10" as="geometry" />
        </mxCell>
        <mxCell id="CldbZqe4EOuW3ksQhoC5-6" value="0" style="text;align=left;html=1;verticalAlign=middle;whiteSpace=wrap;rounded=0;fontFamily=Ubuntu mono;fillColor=#f5f5f5;fontColor=#333333;strokeColor=#666666;" parent="CldbZqe4EOuW3ksQhoC5-3" vertex="1">
          <mxGeometry y="10" width="10" height="10" as="geometry" />
        </mxCell>
        <mxCell id="CldbZqe4EOuW3ksQhoC5-8" value="&lt;font style=&quot;font-size: 14px;&quot; color=&quot;#cc6600&quot;&gt;PCSel&lt;/font&gt;&lt;div style=&quot;&quot;&gt;&lt;font color=&quot;#666666&quot;&gt;Not Taken(0)&lt;/font&gt;&lt;/div&gt;" style="text;strokeColor=none;align=center;fillColor=none;html=1;verticalAlign=middle;whiteSpace=wrap;rounded=0;fontFamily=Ubuntu mono;" parent="1" vertex="1">
          <mxGeometry x="-410" y="560" width="120" height="30" as="geometry" />
        </mxCell>
        <mxCell id="CldbZqe4EOuW3ksQhoC5-12" value="" style="group" parent="1" vertex="1" connectable="0">
          <mxGeometry x="390" y="310" width="20" height="60" as="geometry" />
        </mxCell>
        <mxCell id="CldbZqe4EOuW3ksQhoC5-13" value="" style="shape=trapezoid;perimeter=trapezoidPerimeter;whiteSpace=wrap;html=1;fixedSize=1;rotation=90;size=10;movable=1;resizable=1;rotatable=1;deletable=1;editable=1;locked=0;connectable=1;" parent="CldbZqe4EOuW3ksQhoC5-12" vertex="1">
          <mxGeometry x="-20" y="20" width="60" height="20" as="geometry" />
        </mxCell>
        <mxCell id="CldbZqe4EOuW3ksQhoC5-14" value="1" style="text;align=left;html=1;verticalAlign=middle;whiteSpace=wrap;rounded=0;fontFamily=Ubuntu mono;" parent="CldbZqe4EOuW3ksQhoC5-12" vertex="1">
          <mxGeometry y="10" width="10" height="10" as="geometry" />
        </mxCell>
        <mxCell id="CldbZqe4EOuW3ksQhoC5-15" value="0" style="text;align=left;html=1;verticalAlign=middle;whiteSpace=wrap;rounded=0;fontFamily=Ubuntu mono;" parent="CldbZqe4EOuW3ksQhoC5-12" vertex="1">
          <mxGeometry y="40" width="10" height="10" as="geometry" />
        </mxCell>
        <mxCell id="CldbZqe4EOuW3ksQhoC5-22" style="edgeStyle=orthogonalEdgeStyle;rounded=0;orthogonalLoop=1;jettySize=auto;html=1;exitX=0.5;exitY=0;exitDx=0;exitDy=0;endSize=2;strokeColor=#CC6600;entryX=1;entryY=0.5;entryDx=0;entryDy=0;" parent="1" target="CldbZqe4EOuW3ksQhoC5-13" edge="1">
          <mxGeometry relative="1" as="geometry">
            <mxPoint x="425" y="560" as="sourcePoint" />
            <mxPoint x="400" y="370" as="targetPoint" />
            <Array as="points">
              <mxPoint x="425" y="380" />
              <mxPoint x="400" y="380" />
            </Array>
          </mxGeometry>
        </mxCell>
        <mxCell id="CldbZqe4EOuW3ksQhoC5-21" value="&lt;font style=&quot;font-size: 10px;&quot; color=&quot;#cc6600&quot;&gt;Asel&lt;/font&gt;&lt;div style=&quot;&quot;&gt;&lt;font color=&quot;#6c8ebf&quot; style=&quot;font-size: 10px;&quot;&gt;*&lt;/font&gt;&lt;/div&gt;" style="text;strokeColor=none;align=center;fillColor=none;html=1;verticalAlign=middle;whiteSpace=wrap;rounded=0;fontFamily=Ubuntu mono;" parent="1" vertex="1">
          <mxGeometry x="415" y="560" width="20" height="30" as="geometry" />
        </mxCell>
        <mxCell id="CldbZqe4EOuW3ksQhoC5-26" value="&lt;font style=&quot;font-size: 10px;&quot; color=&quot;#cc6600&quot;&gt;BrUn&lt;/font&gt;&lt;div style=&quot;&quot;&gt;&lt;font color=&quot;#666666&quot;&gt;&lt;span style=&quot;font-size: 10px;&quot;&gt;*&lt;/span&gt;&lt;/font&gt;&lt;/div&gt;" style="text;strokeColor=none;align=center;fillColor=none;html=1;verticalAlign=middle;whiteSpace=wrap;rounded=0;fontFamily=Ubuntu mono;" parent="1" vertex="1">
          <mxGeometry x="260" y="560" width="20" height="30" as="geometry" />
        </mxCell>
        <mxCell id="CldbZqe4EOuW3ksQhoC5-27" value="&lt;span style=&quot;font-size: 10px;&quot;&gt;&lt;font color=&quot;#666666&quot;&gt;BrEq&lt;/font&gt;&lt;/span&gt;" style="text;strokeColor=none;align=center;fillColor=none;html=1;verticalAlign=middle;whiteSpace=wrap;rounded=0;fontFamily=Ubuntu mono;" parent="1" vertex="1">
          <mxGeometry x="290" y="560" width="20" height="15" as="geometry" />
        </mxCell>
        <mxCell id="CldbZqe4EOuW3ksQhoC5-28" value="&lt;span style=&quot;font-size: 10px;&quot;&gt;&lt;font color=&quot;#666666&quot;&gt;BrLT&lt;/font&gt;&lt;/span&gt;" style="text;strokeColor=none;align=center;fillColor=none;html=1;verticalAlign=middle;whiteSpace=wrap;rounded=0;fontFamily=Ubuntu mono;" parent="1" vertex="1">
          <mxGeometry x="320" y="560" width="20" height="15" as="geometry" />
        </mxCell>
        <mxCell id="kVvyRQ-RTrP0RDZJgKDB-2" value="" style="group" parent="1" vertex="1" connectable="0">
          <mxGeometry x="680" y="285" width="20" height="90" as="geometry" />
        </mxCell>
        <mxCell id="o48kV30xjnTPGN6VNpOy-11" value="" style="shape=trapezoid;perimeter=trapezoidPerimeter;whiteSpace=wrap;html=1;fixedSize=1;rotation=90;size=10;movable=1;resizable=1;rotatable=1;deletable=1;editable=1;locked=0;connectable=1;" parent="kVvyRQ-RTrP0RDZJgKDB-2" vertex="1">
          <mxGeometry x="-35" y="35" width="90" height="20" as="geometry" />
        </mxCell>
        <mxCell id="o48kV30xjnTPGN6VNpOy-12" value="0" style="text;align=left;html=1;verticalAlign=middle;whiteSpace=wrap;rounded=0;fontFamily=Ubuntu mono;" parent="kVvyRQ-RTrP0RDZJgKDB-2" vertex="1">
          <mxGeometry y="70" width="10" height="10" as="geometry" />
        </mxCell>
        <mxCell id="o48kV30xjnTPGN6VNpOy-13" value="1" style="text;align=left;html=1;verticalAlign=middle;whiteSpace=wrap;rounded=0;fontFamily=Ubuntu mono;fillColor=#fff2cc;strokeColor=#d6b656;" parent="kVvyRQ-RTrP0RDZJgKDB-2" vertex="1">
          <mxGeometry y="40" width="10" height="10" as="geometry" />
        </mxCell>
        <mxCell id="kVvyRQ-RTrP0RDZJgKDB-1" value="2" style="text;align=left;html=1;verticalAlign=middle;whiteSpace=wrap;rounded=0;fontFamily=Ubuntu mono;" parent="kVvyRQ-RTrP0RDZJgKDB-2" vertex="1">
          <mxGeometry y="10" width="10" height="10" as="geometry" />
        </mxCell>
        <mxCell id="kVvyRQ-RTrP0RDZJgKDB-8" value="&lt;font color=&quot;#d79b00&quot;&gt;Write result&lt;/font&gt;&lt;font color=&quot;#d79b00&quot;&gt;&amp;nbsp;to destination register&lt;/font&gt;" style="text;strokeColor=none;align=left;fillColor=none;html=1;verticalAlign=middle;whiteSpace=wrap;rounded=0;fontSize=20;" parent="1" vertex="1">
          <mxGeometry x="440" y="110" width="220" height="40" as="geometry" />
        </mxCell>
        <mxCell id="9COW8W-_j9X9u5PS8gsG-2" value="&lt;font style=&quot;font-size: 12px;&quot;&gt;pc+4&lt;/font&gt;" style="text;strokeColor=none;align=right;fillColor=none;html=1;verticalAlign=middle;whiteSpace=wrap;rounded=0;fontFamily=Ubuntu mono;" vertex="1" parent="1">
          <mxGeometry x="645" y="285" width="30" height="10" as="geometry" />
        </mxCell>
        <mxCell id="9COW8W-_j9X9u5PS8gsG-3" value="&lt;font style=&quot;font-size: 12px;&quot;&gt;alu&lt;/font&gt;" style="text;strokeColor=none;align=left;fillColor=none;html=1;verticalAlign=middle;whiteSpace=wrap;rounded=0;fontFamily=Ubuntu mono;fontSize=12;" vertex="1" parent="1">
          <mxGeometry x="-400" y="400" width="20" height="10" as="geometry" />
        </mxCell>
      </root>
    </mxGraphModel>
  </diagram>
</mxfile>
